<?xml version="1.0" encoding="utf-8"?>
<!-- Generator: Adobe Illustrator 22.0.0, SVG Export Plug-In . SVG Version: 6.00 Build 0)  -->
<svg version="1.1" id="Layer_1" xmlns="http://www.w3.org/2000/svg" xmlns:xlink="http://www.w3.org/1999/xlink" x="0px" y="0px"
	 viewBox="0 0 132 132" style="enable-background:new 0 0 132 132;" xml:space="preserve">
<style type="text/css">
	.st0{fill:none;stroke:#00FF00;stroke-miterlimit:10;}
</style>
<desc>Kam</desc>
<line class="st0" x1="74.3" y1="65.5" x2="58.3" y2="43.3"/>
<line class="st0" x1="29.3" y1="84.7" x2="84.4" y2="6"/>
<line class="st0" x1="58.3" y1="87.9" x2="74.3" y2="65.5"/>
<line class="st0" x1="42.7" y1="65.5" x2="84.8" y2="126"/>
<line class="st0" x1="42.7" y1="65.5" x2="42.7" y2="109.3"/>
<line class="st0" x1="58.3" y1="87.9" x2="58.3" y2="126"/>
<line class="st0" x1="58.3" y1="126" x2="58.3" y2="126"/>
<line class="st0" x1="58.3" y1="126" x2="29.3" y2="126"/>
<line class="st0" x1="58.3" y1="43.3" x2="58.3" y2="6"/>
<line class="st0" x1="42.7" y1="6" x2="58.3" y2="6"/>
<line class="st0" x1="42.7" y1="6" x2="42.7" y2="65.5"/>
<line class="st0" x1="29.3" y1="6" x2="29.3" y2="84.7"/>
<line class="st0" x1="84.2" y1="6" x2="116" y2="6"/>
<line class="st0" x1="84.6" y1="126" x2="116.7" y2="126"/>
<line class="st0" x1="50.3" y1="76.7" x2="100" y2="6"/>
<line class="st0" x1="50.7" y1="54.6" x2="100.7" y2="126"/>
<line class="st0" x1="66.7" y1="54.6" x2="116.7" y2="126"/>
<line class="st0" x1="66.3" y1="76.7" x2="116" y2="6"/>
</svg>
